<svg id="Capa_1" data-name="Capa 1" xmlns="http://www.w3.org/2000/svg" viewBox="0 0 120.32 95.43"><defs><style>.cls-1{fill:#999;}</style></defs><title>playera</title><path class="cls-1" d="M92.61,95.43H28.84l3.86-56.69L20,53.3,0,37.42,16,14.13a20.7,20.7,0,0,1,5.39-5.38,33.17,33.17,0,0,1,15.5-5.89L48.38,1l.3,1.15c.13.5,3.28,12.09,18.2,9.08C73.44,10,75.6,2.62,75.62,2.54L76,1.39,90.17,4.12a22.68,22.68,0,0,1,7.28,2,24.11,24.11,0,0,1,11.23,10.86l11.65,21.91L100.05,53.33,89.72,38.57Zm-61-2.61H89.86L86.65,29.64l14,20,16.26-11.62L106.37,18.17a21.52,21.52,0,0,0-10-9.7A20.68,20.68,0,0,0,89.86,6.7L77.74,4.39c-1,2.47-3.88,8.14-10.35,9.45C52.93,16.75,47.86,7.34,46.53,4L37.19,5.45A30.52,30.52,0,0,0,22.9,10.9a18.11,18.11,0,0,0-4.71,4.71L3.53,36.89l16.1,12.82,16.19-18.5Z"/></svg>